<?xml version="1.0"?>
<svg xmlns="http://www.w3.org/2000/svg" xmlns:xlink="http://www.w3.org/1999/xlink" version="1.1" id="Layer_1" x="0px" y="0px" viewBox="0 0 512 512" className="star" style="enable-background:new 0 0 512 512;" xml:space="preserve" width="512px" height="512px" class=""><g><polygon style="fill:#453659" points="244.162,301.315 156.897,512 136.046,474.135 193.82,264.75 " data-original="#E02E00" class="active-path" data-old_color="#573C71"/><polygon style="fill:#8C4A6F" points="144.294,225.438 44.831,465.582 119.425,443.966 136.046,474.135 216.368,280.193 " data-original="#FF4719" class="" data-old_color="#C64E91"/><polygon style="fill:#453659" points="267.838,301.315 355.103,512 375.954,474.135 318.18,264.75 " data-original="#C20035" class="" data-old_color="#C20035"/><polygon style="fill:#8C4A6F" points="367.706,225.438 295.632,280.193 375.954,474.135 392.575,443.966 467.169,465.582 " data-original="#FF0F47" class="" data-old_color="#FF0F47"/><path style="fill:#F25E6B" d="M256,0l-56.264,161.611L256,323.222c89.255,0,161.611-72.355,161.611-161.611S345.255,0,256,0z" data-original="#E89330" class="" data-old_color="#E89330"/><path style="fill:#F2B885" d="M94.389,161.611c0,89.255,72.355,161.611,161.611,161.611V0C166.745,0,94.389,72.355,94.389,161.611z  " data-original="#FFBE35" class="" data-old_color="#FFBE35"/><path style="fill:#F2B885" d="M256,33.758v255.707c70.498,0,127.854-57.355,127.854-127.854S326.498,33.758,256,33.758z" data-original="#FFDB8A" class="" data-old_color="#FFDB8A"/><path style="fill:#FFEAB5" d="M256,33.758c-70.498,0-127.854,57.355-127.854,127.854S185.502,289.466,256,289.466  c58.087,0,105.348-57.355,105.348-127.854S314.087,33.758,256,33.758z" data-original="#FFEAB5" class="" data-old_color="#F2B885"/><polygon style="fill:#F25E6B" points="256,67.516 284.555,122.307 345.489,132.534 302.204,176.623 311.307,237.733 256,210.191   200.693,237.733 209.796,176.623 166.511,132.534 227.445,122.307 " data-original="#E89330" class="" data-old_color="#E89330"/></g> </svg>
